<svg xmlns="http://www.w3.org/2000/svg" viewBox="0 0 227.24 237.4"><defs><style>.cls-1{fill:#fff;}</style></defs><g id="Livello_2" data-name="Livello 2"><g id="PP_Dark"><path class="cls-1" d="M152.27,234.69a155.41,155.41,0,0,1-29.83,2.71C54.61,237.4,0,187.51,0,119.35v-4.63C0,112,9.58,109,9.58,109s-9-4.17-8.54-7.26C10.07,44.56,59.93,0,124.81,0q8.35,0,16.07.77L103.15,61.39c-21.68,8.76-35.65,31-35.65,56.66v.65c0,34.24,23.4,61,56.64,61,12.38,0,22.14-2.77,30.62-7.63Zm13.94-71A128.84,128.84,0,0,0,177.72,152l49.52,33.92c-18,23.5-40.46,42.09-75,48.81ZM156,2.51a117.16,117.16,0,0,1,69.56,44.77L176,84.13c-13.57-16-28.83-26.74-51.89-26.74a55.72,55.72,0,0,0-21,4Z"/></g></g></svg>