<svg xmlns="http://www.w3.org/2000/svg" viewBox="0 0 259.9 27.12"><defs><style>.cls-1{fill:#fff;}</style></defs><g id="Livello_2" data-name="Livello 2"><g id="PP_Dark2"><path class="cls-1" d="M0,13.64v-.08C0,6,6.05,0,14.26,0c5.5,0,9.15,2.24,11.51,5.4L20.11,9.61a7.4,7.4,0,0,0-5.93-3c-3.79,0-6.47,3.13-6.47,6.93v.07c0,3.91,2.68,7,6.47,7,2.83,0,4.46-1.27,6.13-3.17L26,21.24a13.84,13.84,0,0,1-12,5.88C6.24,27.12,0,21.42,0,13.64Z"/><polygon class="cls-1" points="44.25 0.34 37.01 0.34 25.5 26.6 33.36 26.6 40.57 8.9 47.74 26.6 55.8 26.6 44.25 0.34"/><path class="cls-1" d="M68.74.52H57.08V6.6H68.16c2.68,0,4.34,1.15,4.34,3.38v.08c0,2.09-1.66,3.43-4.3,3.43H57.08V26.6H64.6V19.15h3.76c6.7,0,11.62-3.24,11.62-9.42V9.65C80,3.88,75.56.52,68.74.52Z"/><path class="cls-1" d="M88.43,6.86h-8.1V.52h23.75V6.86H96V26.6H88.43Z"/><path class="cls-1" d="M106.22.52h7.51V26.6h-7.51Z"/><path class="cls-1" d="M135.94.52,129.74,17l-3.62,9.63,0,.13h7l11-26.27Zm-12.37,0H115.2l8.4,20.1,3.75-10Z"/><polygon class="cls-1" points="158.18 0.34 150.93 0.34 139.43 26.6 147.29 26.6 154.5 8.9 161.67 26.6 169.73 26.6 158.18 0.34"/><path class="cls-1" d="M174.15,6.86h-8.1V.52H189.8V6.86h-8.14V26.6h-7.51Z"/><path class="cls-1" d="M191.93.52h7.52V26.6h-7.52Z"/><path class="cls-1" d="M202.74,15.16V.52h7.6V15c0,3.76,1.94,5.55,5,5.55s5-1.68,5-5.37V.52H228V15c0,8.38-5,12.11-12.71,12.11S202.74,23.36,202.74,15.16Z"/><polygon class="cls-1" points="252.42 26.6 259.9 26.6 259.9 10.53 252.42 23.4 252.42 26.6"/><polygon class="cls-1" points="231.07 26.6 238.43 26.6 238.43 23.2 231.07 10.53 231.07 26.6"/><polygon class="cls-1" points="259.9 0.52 253.39 0.52 245.48 13.85 237.94 0.52 231.07 0.52 238.43 13.19 244.49 23.61 246.48 23.61 252.42 13.39 259.9 0.52"/></g></g></svg>